<svg width="121" height="38" viewBox="0 0 121 38" fill="none" xmlns="http://www.w3.org/2000/svg">
<path d="M35.5179 26.9829C35.5179 29.2851 34.5901 31.3736 33.0886 32.881C31.5908 34.392 29.5156 35.3257 27.2279 35.3257C22.6489 35.3257 18.938 31.5911 18.938 26.9829C18.938 24.6807 18.0102 22.5922 16.5087 21.0849C15.0109 19.5738 12.9357 18.6402 10.648 18.6402C6.06899 18.6402 2.35807 14.9056 2.35807 10.2974C2.35807 7.99518 3.28581 5.90668 4.78731 4.39936C6.28509 2.88829 8.36037 1.95465 10.648 1.95465C12.9357 1.95465 15.0109 2.88829 16.5087 4.39936C18.0102 5.90668 18.938 7.99518 18.938 10.2974C18.938 14.9056 22.6489 18.6402 27.2279 18.6402C29.5156 18.6402 31.5908 19.5738 33.0886 21.0849C34.5901 22.5922 35.5179 24.6807 35.5179 26.9829Z" fill="url(#paint0_linear_150_50)"/>
<path d="M35.5186 26.9818C35.5186 29.284 34.5909 31.3725 33.0894 32.8799C32.8435 33.1311 32.5789 33.3635 32.3032 33.5773C32.9552 32.3887 33.3278 31.0163 33.3278 29.5615C33.3278 27.2593 32.4001 25.1708 30.8986 23.6635C29.4008 22.1524 27.3255 21.2187 25.0379 21.2187C20.4588 21.2187 16.7479 17.4842 16.7479 12.876C16.7479 10.5738 15.8202 8.48527 14.3187 6.97795C12.8209 5.46688 10.7456 4.53324 8.45798 4.53324C6.54663 4.53324 4.78432 5.18566 3.38342 6.28053C3.75972 5.58687 4.23661 4.95319 4.78803 4.39826C6.28581 2.88719 8.36111 1.95355 10.6488 1.95355C12.9364 1.95355 15.0117 2.88719 16.5095 4.39826C18.011 5.90558 18.9387 7.99408 18.9387 10.2963C18.9387 14.9045 22.6496 18.6391 27.2287 18.6391C29.5163 18.6391 31.5916 19.5727 33.0894 21.0838C34.5909 22.5911 35.5186 24.6796 35.5186 26.9818Z" fill="url(#paint1_linear_150_50)"/>
<path d="M23.8497 14.2438C22.232 12.6158 21.4205 10.4789 21.4235 8.34465C21.4209 6.2104 22.2323 4.07353 23.8497 2.44548C27.0875 -0.812881 32.3356 -0.812881 35.5734 2.44548C37.1911 4.07353 38.0023 6.2104 37.9996 8.34465C38.0023 10.4789 37.1908 12.6158 35.5734 14.2438C33.9556 15.8719 31.8323 16.6882 29.7116 16.6855C27.5908 16.6885 25.4675 15.8719 23.8497 14.2438Z" fill="url(#paint2_linear_150_50)"/>
<path d="M38 8.34275C38 10.645 37.0723 12.7335 35.5708 14.2408C34.8629 14.9532 34.0283 15.5381 33.1043 15.9543C34.412 14.4808 35.2056 12.5348 35.2056 10.405C35.2056 8.10653 34.2779 6.01428 32.7764 4.50696C31.2786 2.99964 29.2033 2.06225 26.9157 2.06225C25.7085 2.06225 24.5573 2.32472 23.5215 2.79717C23.6258 2.67718 23.7376 2.5572 23.8493 2.44471C25.3471 0.937389 27.4224 0 29.7101 0C31.9977 0 34.073 0.937389 35.5708 2.44471C37.0723 3.95203 38 6.04428 38 8.34275Z" fill="url(#paint3_linear_150_50)"/>
<path d="M2.42625 34.9599C0.808497 33.3318 -0.00297248 31.195 8.18131e-06 29.0607C-0.00259989 26.9265 0.80887 24.7896 2.42625 23.1615C5.66399 19.9032 10.9122 19.9032 14.1499 23.1615C15.7677 24.7896 16.5788 26.9265 16.5762 29.0607C16.5788 31.195 15.7673 33.3318 14.1499 34.9599C12.5322 36.5879 10.4088 37.4042 8.28809 37.4016C6.16736 37.4046 4.044 36.5879 2.42625 34.9599Z" fill="url(#paint4_linear_150_50)"/>
<path d="M16.5765 29.059C16.5765 31.3613 15.6488 33.4498 14.1473 34.9571C13.4394 35.6695 12.6048 36.2544 11.6808 36.6706C12.9886 35.197 13.7822 33.251 13.7822 31.1213C13.7822 28.8228 12.8545 26.7306 11.3529 25.2232C9.85517 23.7159 7.77987 22.7785 5.49222 22.7785C4.28505 22.7785 3.13378 23.041 2.098 23.5134C2.20232 23.3935 2.3141 23.2735 2.42587 23.161C3.92365 21.6537 5.99893 20.7163 8.28658 20.7163C10.5742 20.7163 12.6495 21.6537 14.1473 23.161C15.6488 24.6683 16.5765 26.7606 16.5765 29.059Z" fill="url(#paint5_linear_150_50)"/>
<path d="M50.312 30.4764V6.47238H55.65V30.4764H50.312ZM54.426 30.4764V25.7844H66.292V30.4764H54.426ZM75.531 30.8164C74.0123 30.8164 72.6523 30.4424 71.451 29.6944C70.2723 28.9464 69.3316 27.9264 68.629 26.6344C67.949 25.3424 67.609 23.869 67.609 22.2144C67.609 20.5597 67.949 19.0864 68.629 17.7944C69.3316 16.5024 70.2723 15.4824 71.451 14.7344C72.6523 13.9864 74.0123 13.6124 75.531 13.6124C76.6416 13.6124 77.639 13.8277 78.523 14.2584C79.4296 14.689 80.1663 15.2897 80.733 16.0604C81.2996 16.8084 81.617 17.6697 81.685 18.6444V25.7844C81.617 26.759 81.2996 27.6317 80.733 28.4024C80.189 29.1504 79.4636 29.7397 78.557 30.1704C77.6503 30.601 76.6416 30.8164 75.531 30.8164ZM76.585 26.1244C77.6956 26.1244 78.591 25.7617 79.271 25.0364C79.951 24.2884 80.291 23.3477 80.291 22.2144C80.291 21.4437 80.1323 20.7637 79.815 20.1744C79.5203 19.585 79.0896 19.1317 78.523 18.8144C77.979 18.4744 77.3443 18.3044 76.619 18.3044C75.8936 18.3044 75.2476 18.4744 74.681 18.8144C74.137 19.1317 73.695 19.585 73.355 20.1744C73.0376 20.7637 72.879 21.4437 72.879 22.2144C72.879 22.9624 73.0376 23.631 73.355 24.2204C73.6723 24.8097 74.1143 25.2744 74.681 25.6144C75.2476 25.9544 75.8823 26.1244 76.585 26.1244ZM80.087 30.4764V26.0224L80.869 22.0104L80.087 17.9984V13.9524H85.187V30.4764H80.087ZM99.4237 30.4764L93.6437 21.9084L99.3897 13.9524H105.204L98.2677 22.8944L98.4377 20.7524L105.544 30.4764H99.4237ZM88.8497 30.4764V5.79238H94.0517V30.4764H88.8497ZM112.465 30.8844C111.491 30.8844 110.527 30.7597 109.575 30.5104C108.646 30.261 107.773 29.9097 106.957 29.4564C106.164 28.9804 105.484 28.4364 104.917 27.8244L107.875 24.8324C108.419 25.4217 109.065 25.8864 109.813 26.2264C110.561 26.5437 111.377 26.7024 112.261 26.7024C112.873 26.7024 113.338 26.6117 113.655 26.4304C113.995 26.249 114.165 25.9997 114.165 25.6824C114.165 25.2744 113.961 24.9684 113.553 24.7644C113.168 24.5377 112.669 24.345 112.057 24.1864C111.445 24.005 110.799 23.8124 110.119 23.6084C109.439 23.4044 108.793 23.121 108.181 22.7584C107.569 22.3957 107.071 21.897 106.685 21.2624C106.3 20.605 106.107 19.7777 106.107 18.7804C106.107 17.715 106.379 16.797 106.923 16.0264C107.467 15.233 108.238 14.6097 109.235 14.1564C110.233 13.703 111.4 13.4764 112.737 13.4764C114.143 13.4764 115.435 13.7257 116.613 14.2244C117.815 14.7004 118.789 15.4144 119.537 16.3664L116.579 19.3584C116.058 18.7464 115.469 18.3157 114.811 18.0664C114.177 17.817 113.553 17.6924 112.941 17.6924C112.352 17.6924 111.91 17.783 111.615 17.9644C111.321 18.123 111.173 18.361 111.173 18.6784C111.173 19.0184 111.366 19.2904 111.751 19.4944C112.137 19.6984 112.635 19.8797 113.247 20.0384C113.859 20.197 114.505 20.3897 115.185 20.6164C115.865 20.843 116.511 21.149 117.123 21.5344C117.735 21.9197 118.234 22.441 118.619 23.0984C119.005 23.733 119.197 24.5717 119.197 25.6144C119.197 27.2237 118.585 28.5044 117.361 29.4564C116.16 30.4084 114.528 30.8844 112.465 30.8844Z" fill="#0C1300"/>
<defs>
<linearGradient id="paint0_linear_150_50" x1="2.35807" y1="1.95465" x2="37.2594" y2="3.88803" gradientUnits="userSpaceOnUse">
<stop stop-color="#659831"/>
<stop offset="1" stop-color="#426900"/>
</linearGradient>
<linearGradient id="paint1_linear_150_50" x1="3.38342" y1="1.95355" x2="37.2016" y2="3.86935" gradientUnits="userSpaceOnUse">
<stop stop-color="#659831"/>
<stop offset="1" stop-color="#426900"/>
</linearGradient>
<linearGradient id="paint2_linear_150_50" x1="21.4235" y1="0.00170898" x2="38.8702" y2="0.968063" gradientUnits="userSpaceOnUse">
<stop stop-color="#659831"/>
<stop offset="1" stop-color="#426900"/>
</linearGradient>
<linearGradient id="paint3_linear_150_50" x1="23.5215" y1="0" x2="38.7681" y2="0.771353" gradientUnits="userSpaceOnUse">
<stop stop-color="#659831"/>
<stop offset="1" stop-color="#426900"/>
</linearGradient>
<linearGradient id="paint4_linear_150_50" x1="0" y1="20.7178" x2="17.4468" y2="21.6841" gradientUnits="userSpaceOnUse">
<stop stop-color="#659831"/>
<stop offset="1" stop-color="#426900"/>
</linearGradient>
<linearGradient id="paint5_linear_150_50" x1="2.098" y1="20.7163" x2="17.3447" y2="21.4876" gradientUnits="userSpaceOnUse">
<stop stop-color="#659831"/>
<stop offset="1" stop-color="#426900"/>
</linearGradient>
</defs>
</svg>
