<svg width="662" height="219" viewBox="0 0 662 219" fill="none" xmlns="http://www.w3.org/2000/svg">
<path d="M17.2911 73.4697C17.2911 72.0791 17.5567 70.7744 18.088 69.5557C18.6192 68.3369 19.338 67.2744 20.2442 66.3682C21.1661 65.4463 22.2364 64.7197 23.4551 64.1885C24.6739 63.6572 25.9786 63.3916 27.3692 63.3916H42.7911V70.1182H27.3692C26.9005 70.1182 26.463 70.2041 26.0567 70.376C25.6505 70.5479 25.2911 70.79 24.9786 71.1025C24.6817 71.3994 24.4473 71.751 24.2755 72.1572C24.1036 72.5635 24.0176 73.001 24.0176 73.4697C24.0176 73.9385 24.1036 74.3838 24.2755 74.8057C24.4473 75.2119 24.6817 75.5713 24.9786 75.8838C25.2911 76.1807 25.6505 76.415 26.0567 76.5869C26.463 76.7588 26.9005 76.8447 27.3692 76.8447H34.0958C35.4864 76.8447 36.7911 77.1104 38.0098 77.6416C39.2442 78.1572 40.3145 78.876 41.2208 79.7979C42.1426 80.7041 42.8614 81.7744 43.377 83.0088C43.9083 84.2275 44.1739 85.5322 44.1739 86.9229C44.1739 88.3135 43.9083 89.6182 43.377 90.8369C42.8614 92.0557 42.1426 93.126 41.2208 94.0479C40.3145 94.9541 39.2442 95.6729 38.0098 96.2041C36.7911 96.7354 35.4864 97.001 34.0958 97.001H19.1661V90.2744H34.0958C34.5645 90.2744 35.002 90.1885 35.4083 90.0166C35.8145 89.8447 36.1661 89.6104 36.463 89.3135C36.7755 89.001 37.0176 88.6416 37.1895 88.2354C37.3614 87.8291 37.4473 87.3916 37.4473 86.9229C37.4473 86.4541 37.3614 86.0166 37.1895 85.6104C37.0176 85.2041 36.7755 84.8525 36.463 84.5557C36.1661 84.2432 35.8145 84.001 35.4083 83.8291C35.002 83.6572 34.5645 83.5713 34.0958 83.5713H27.3692C25.9786 83.5713 24.6739 83.3057 23.4551 82.7744C22.2364 82.2432 21.1661 81.5244 20.2442 80.6182C19.338 79.6963 18.6192 78.626 18.088 77.4072C17.5567 76.1729 17.2911 74.8604 17.2911 73.4697ZM81.2833 80.7734C81.2833 83.0202 80.8585 85.1348 80.0089 87.1172C79.1592 89.0807 77.9981 90.7988 76.5255 92.2715C75.0528 93.7253 73.3253 94.877 71.3428 95.7266C69.3793 96.5762 67.2741 97.001 65.0274 97.001C62.7807 97.001 60.6661 96.5762 58.6837 95.7266C56.7201 94.877 55.002 93.7253 53.5294 92.2715C52.0756 90.7988 50.9239 89.0807 50.0743 87.1172C49.2247 85.1348 48.7999 83.0202 48.7999 80.7734V56.3896H56.8995V80.7734C56.8995 81.8874 57.1072 82.9352 57.5225 83.917C57.9568 84.8988 58.5421 85.7578 59.2784 86.4941C60.0147 87.2305 60.8738 87.8158 61.8555 88.25C62.8562 88.6654 63.9135 88.873 65.0274 88.873C66.1413 88.873 67.1892 88.6654 68.171 88.25C69.1716 87.8158 70.0401 87.2305 70.7764 86.4941C71.5128 85.7578 72.0886 84.8988 72.504 83.917C72.9382 82.9352 73.1553 81.8874 73.1553 80.7734V56.3896H81.2833V80.7734ZM127.068 82.7236C127.068 84.6937 126.692 86.542 125.94 88.2686C125.187 89.9951 124.158 91.5114 122.852 92.8174C121.568 94.1012 120.063 95.1195 118.336 95.8721C116.609 96.6247 114.761 97.001 112.791 97.001H88.9844V49.3877H112.791C114.761 49.3877 116.609 49.764 118.336 50.5166C120.063 51.2692 121.568 52.2985 122.852 53.6045C124.158 54.8883 125.187 56.3936 125.94 58.1201C126.692 59.8467 127.068 61.695 127.068 63.665C127.068 64.5505 126.947 65.458 126.703 66.3877C126.46 67.3174 126.117 68.2139 125.674 69.0771C125.231 69.9404 124.7 70.7262 124.08 71.4346C123.46 72.1429 122.774 72.7295 122.022 73.1943C122.796 73.6149 123.494 74.1904 124.113 74.9209C124.733 75.6292 125.264 76.415 125.707 77.2783C126.15 78.1416 126.482 79.0492 126.703 80.001C126.947 80.9307 127.068 81.8382 127.068 82.7236ZM98.5137 87.4717H112.791C113.455 87.4717 114.075 87.3499 114.65 87.1064C115.226 86.863 115.724 86.5309 116.145 86.1104C116.587 85.6676 116.93 85.1585 117.174 84.583C117.417 84.0075 117.539 83.3877 117.539 82.7236C117.539 82.0596 117.417 81.4398 117.174 80.8643C116.93 80.2887 116.587 79.7907 116.145 79.3701C115.724 78.9274 115.226 78.5843 114.65 78.3408C114.075 78.0973 113.455 77.9756 112.791 77.9756H98.5137V87.4717ZM98.5137 68.4463H112.791C113.455 68.4463 114.075 68.3245 114.65 68.0811C115.226 67.8376 115.724 67.5055 116.145 67.085C116.587 66.6423 116.93 66.1331 117.174 65.5576C117.417 64.96 117.539 64.3291 117.539 63.665C117.539 63.001 117.417 62.3812 117.174 61.8057C116.93 61.2301 116.587 60.7321 116.145 60.3115C115.724 59.8688 115.226 59.5257 114.65 59.2822C114.075 59.0387 113.455 58.917 112.791 58.917H98.5137V68.4463ZM189.119 97.001H178.227V58.001C178.227 57.2393 178.074 56.5283 177.77 55.8682C177.49 55.208 177.097 54.6367 176.589 54.1543C176.107 53.6465 175.535 53.2529 174.875 52.9736C174.215 52.6943 173.504 52.5547 172.742 52.5547C171.981 52.5547 171.27 52.6943 170.609 52.9736C169.949 53.2529 169.365 53.6465 168.857 54.1543C168.375 54.6367 167.994 55.208 167.715 55.8682C167.436 56.5283 167.296 57.2393 167.296 58.001V97.001H156.365V58.001C156.365 57.2393 156.226 56.5283 155.946 55.8682C155.667 55.208 155.273 54.6367 154.766 54.1543C154.283 53.6465 153.712 53.2529 153.052 52.9736C152.392 52.6943 151.681 52.5547 150.919 52.5547C150.157 52.5547 149.446 52.6943 148.786 52.9736C148.126 53.2529 147.542 53.6465 147.034 54.1543C146.552 54.6367 146.171 55.208 145.892 55.8682C145.612 56.5283 145.473 57.2393 145.473 58.001V97.001H134.542V58.001C134.542 55.7412 134.961 53.6211 135.799 51.6406C136.662 49.6348 137.83 47.8955 139.303 46.4229C140.801 44.9248 142.54 43.7568 144.521 42.9189C146.526 42.0557 148.659 41.624 150.919 41.624C152.95 41.624 154.905 41.9922 156.784 42.7285C158.663 43.4395 160.352 44.4805 161.85 45.8516C163.348 44.4805 165.023 43.4395 166.877 42.7285C168.756 41.9922 170.711 41.624 172.742 41.624C175.002 41.624 177.122 42.0557 179.103 42.9189C181.108 43.7568 182.848 44.9248 184.32 46.4229C185.818 47.8955 186.986 49.6348 187.824 51.6406C188.688 53.6211 189.119 55.7412 189.119 58.001V97.001ZM211.889 97.001H199.557V35.3838H211.889V97.001ZM252.817 97.001H239.132V42.1152H218.508V28.3818H273.394V42.1152H252.817V97.001ZM342.797 97.001H327.715V73.3232C324.375 72.4795 321.299 71.126 318.486 69.2627C315.709 67.3994 313.318 65.1846 311.315 62.6182C309.311 60.0166 307.746 57.1514 306.621 54.0225C305.531 50.8584 304.986 47.5361 304.986 44.0557V21.3799H320.121V44.0557C320.121 46.1299 320.508 48.0986 321.281 49.9619C322.09 51.79 323.18 53.3896 324.551 54.7607C325.922 56.1318 327.522 57.2217 329.35 58.0303C331.213 58.8037 333.182 59.1904 335.256 59.1904C337.33 59.1904 339.281 58.8037 341.109 58.0303C342.973 57.2217 344.59 56.1318 345.961 54.7607C347.332 53.3896 348.404 51.79 349.178 49.9619C349.986 48.0986 350.391 46.1299 350.391 44.0557V21.3799H365.473V44.0557C365.473 47.5361 364.91 50.8584 363.785 54.0225C362.695 57.1514 361.148 60.0166 359.145 62.6182C357.141 65.1846 354.75 67.3994 351.973 69.2627C349.195 71.126 346.137 72.4795 342.797 73.3232V97.001ZM457.357 56.0352C457.357 59.9531 456.839 63.7367 455.802 67.3857C454.803 70.9964 453.382 74.3958 451.538 77.584C449.694 80.7337 447.467 83.6146 444.855 86.2266C442.243 88.8385 439.362 91.0856 436.212 92.9678C433.062 94.8115 429.663 96.2327 426.014 97.2314C422.365 98.2686 418.581 98.7871 414.663 98.7871C410.745 98.7871 406.962 98.2686 403.313 97.2314C399.702 96.2327 396.302 94.8115 393.114 92.9678C389.965 91.0856 387.084 88.8385 384.472 86.2266C381.86 83.6146 379.613 80.7337 377.731 77.584C375.887 74.3958 374.446 70.9964 373.409 67.3857C372.411 63.7367 371.911 59.9531 371.911 56.0352C371.911 52.1172 372.411 48.3337 373.409 44.6846C374.446 41.0355 375.887 37.6361 377.731 34.4863C379.613 31.3366 381.86 28.4557 384.472 25.8438C387.084 23.2318 389.965 21.0039 393.114 19.1602C396.302 17.3164 399.702 15.8952 403.313 14.8965C406.962 13.8594 410.745 13.3408 414.663 13.3408C418.581 13.3408 422.365 13.8594 426.014 14.8965C429.663 15.8952 433.062 17.3164 436.212 19.1602C439.362 21.0039 442.243 23.2318 444.855 25.8438C447.467 28.4557 449.694 31.3366 451.538 34.4863C453.382 37.6361 454.803 41.0355 455.802 44.6846C456.839 48.3337 457.357 52.1172 457.357 56.0352ZM440.937 56.0352C440.937 52.4245 440.245 49.0251 438.862 45.8369C437.48 42.6104 435.597 39.8255 433.216 37.4824C430.873 35.1009 428.088 33.2188 424.861 31.8359C421.673 30.4531 418.274 29.7617 414.663 29.7617C411.014 29.7617 407.595 30.4531 404.407 31.8359C401.219 33.2188 398.434 35.1009 396.053 37.4824C393.671 39.8255 391.789 42.6104 390.406 45.8369C389.023 49.0251 388.332 52.4245 388.332 56.0352C388.332 59.6458 389.023 63.0452 390.406 66.2334C391.789 69.3831 393.671 72.1488 396.053 74.5303C398.434 76.9118 401.219 78.7939 404.407 80.1768C407.595 81.5596 411.014 82.251 414.663 82.251C418.274 82.251 421.673 81.5596 424.861 80.1768C428.088 78.7939 430.873 76.9118 433.216 74.5303C435.597 72.1488 437.48 69.3831 438.862 66.2334C440.245 63.0452 440.937 59.6458 440.937 56.0352ZM539.584 61.1885C539.584 66.1468 538.647 70.8135 536.772 75.1885C534.897 79.5218 532.334 83.3135 529.084 86.5635C525.834 89.7718 522.022 92.3135 517.647 94.1885C513.313 96.0635 508.667 97.001 503.709 97.001C498.751 97.001 494.084 96.0635 489.709 94.1885C485.376 92.3135 481.584 89.7718 478.334 86.5635C475.126 83.3135 472.584 79.5218 470.709 75.1885C468.834 70.8135 467.897 66.1468 467.897 61.1885V7.37598H485.772V61.1885C485.772 63.6468 486.23 65.9593 487.147 68.126C488.105 70.2926 489.397 72.1885 491.022 73.8135C492.647 75.4385 494.542 76.7301 496.709 77.6885C498.917 78.6051 501.251 79.0635 503.709 79.0635C506.167 79.0635 508.48 78.6051 510.647 77.6885C512.855 76.7301 514.772 75.4385 516.397 73.8135C518.022 72.1885 519.292 70.2926 520.209 68.126C521.167 65.9593 521.647 63.6468 521.647 61.1885V7.37598H539.584V61.1885ZM575.135 19.7129V58.3906H594.474C597.124 58.3906 599.617 57.8965 601.953 56.9082C604.289 55.875 606.333 54.4824 608.085 52.7305C609.837 50.9785 611.207 48.9346 612.195 46.5986C613.229 44.2178 613.745 41.7021 613.745 39.0518C613.745 36.4014 613.229 33.9082 612.195 31.5723C611.207 29.1914 609.837 27.125 608.085 25.373C606.333 23.6211 604.289 22.251 601.953 21.2627C599.617 20.2295 597.124 19.7129 594.474 19.7129H575.135ZM575.135 97.001H555.796V0.374023H594.474C598.023 0.374023 601.437 0.845703 604.716 1.78906C607.995 2.6875 611.05 3.99023 613.88 5.69727C616.755 7.35938 619.36 9.38086 621.696 11.7617C624.077 14.0977 626.099 16.7031 627.761 19.5781C629.468 22.4531 630.771 25.5303 631.669 28.8096C632.612 32.0889 633.084 35.5029 633.084 39.0518C633.084 42.376 632.657 45.6104 631.804 48.7549C630.995 51.8994 629.805 54.8867 628.232 57.7168C626.705 60.5469 624.818 63.1523 622.572 65.5332C620.326 67.9141 617.811 69.9805 615.025 71.7324L625.739 97.001H605.188L596.765 77.5273L575.135 77.6621V97.001ZM103.718 217.001H83.0499V143.001C83.0499 141.556 82.7608 140.207 82.1827 138.954C81.6527 137.701 80.906 136.618 79.9424 135.702C79.0271 134.739 77.9431 133.992 76.6905 133.462C75.4379 132.932 74.0889 132.667 72.6436 132.667C71.1983 132.667 69.8493 132.932 68.5967 133.462C67.3441 133.992 66.2361 134.739 65.2725 135.702C64.3572 136.618 63.6345 137.701 63.1046 138.954C62.5746 140.207 62.3096 141.556 62.3096 143.001V217.001H41.5694V143.001C41.5694 141.556 41.3044 140.207 40.7745 138.954C40.2445 137.701 39.4978 136.618 38.5342 135.702C37.6189 134.739 36.5349 133.992 35.2823 133.462C34.0297 132.932 32.6807 132.667 31.2354 132.667C29.7901 132.667 28.4411 132.932 27.1885 133.462C25.9359 133.992 24.8279 134.739 23.8643 135.702C22.949 136.618 22.2263 137.701 21.6964 138.954C21.1664 140.207 20.9014 141.556 20.9014 143.001V217.001H0.161194V143.001C0.161194 138.713 0.956116 134.69 2.54596 130.933C4.18398 127.127 6.40013 123.826 9.1944 121.032C12.0368 118.19 15.337 115.974 19.0948 114.384C22.9008 112.746 26.9477 111.927 31.2354 111.927C35.0896 111.927 38.7992 112.625 42.3643 114.022C45.9294 115.371 49.1332 117.347 51.9756 119.948C54.8181 117.347 57.9978 115.371 61.5147 114.022C65.0798 112.625 68.7894 111.927 72.6436 111.927C76.9314 111.927 80.9542 112.746 84.712 114.384C88.518 115.974 91.8181 118.19 94.6124 121.032C97.4548 123.826 99.671 127.127 101.261 130.933C102.899 134.69 103.718 138.713 103.718 143.001V217.001ZM197.851 178.391C197.851 183.736 196.84 188.768 194.818 193.484C192.797 198.156 190.034 202.244 186.53 205.748C183.026 209.207 178.916 211.947 174.199 213.969C169.527 215.99 164.519 217.001 159.173 217.001C153.827 217.001 148.796 215.99 144.079 213.969C139.407 211.947 135.319 209.207 131.815 205.748C128.357 202.244 125.616 198.156 123.595 193.484C121.573 188.768 120.563 183.736 120.563 178.391V120.374H139.834V178.391C139.834 181.041 140.328 183.534 141.316 185.87C142.35 188.206 143.742 190.25 145.494 192.002C147.246 193.754 149.29 195.146 151.626 196.18C154.007 197.168 156.523 197.662 159.173 197.662C161.823 197.662 164.316 197.168 166.652 196.18C169.033 195.146 171.1 193.754 172.852 192.002C174.604 190.25 175.974 188.206 176.962 185.87C177.995 183.534 178.512 181.041 178.512 178.391V120.374H197.851V178.391ZM208.73 154.251C208.73 150.543 209.438 147.063 210.855 143.813C212.271 140.563 214.188 137.73 216.605 135.313C219.063 132.855 221.917 130.918 225.167 129.501C228.417 128.084 231.896 127.376 235.605 127.376H276.73V145.313H235.605C234.355 145.313 233.188 145.543 232.105 146.001C231.021 146.459 230.063 147.105 229.23 147.938C228.438 148.73 227.813 149.668 227.355 150.751C226.896 151.834 226.667 153.001 226.667 154.251C226.667 155.501 226.896 156.688 227.355 157.813C227.813 158.897 228.438 159.855 229.23 160.688C230.063 161.48 231.021 162.105 232.105 162.563C233.188 163.022 234.355 163.251 235.605 163.251H253.542C257.25 163.251 260.73 163.959 263.98 165.376C267.271 166.751 270.125 168.668 272.542 171.126C275 173.543 276.917 176.397 278.292 179.688C279.709 182.938 280.417 186.418 280.417 190.126C280.417 193.834 279.709 197.313 278.292 200.563C276.917 203.813 275 206.668 272.542 209.126C270.125 211.543 267.271 213.459 263.98 214.876C260.73 216.293 257.25 217.001 253.542 217.001H213.73V199.063H253.542C254.792 199.063 255.959 198.834 257.042 198.376C258.125 197.918 259.063 197.293 259.855 196.501C260.688 195.668 261.334 194.709 261.792 193.626C262.25 192.543 262.48 191.376 262.48 190.126C262.48 188.876 262.25 187.709 261.792 186.626C261.334 185.543 260.688 184.605 259.855 183.813C259.063 182.98 258.125 182.334 257.042 181.876C255.959 181.418 254.792 181.188 253.542 181.188H235.605C231.896 181.188 228.417 180.48 225.167 179.063C221.917 177.647 219.063 175.73 216.605 173.313C214.188 170.855 212.271 168.001 210.855 164.751C209.438 161.459 208.73 157.959 208.73 154.251ZM308.116 217.001H291.58V134.378H308.116V217.001ZM383.232 209.249C379.716 212.272 375.778 214.593 371.419 216.21C367.06 217.827 362.542 218.636 357.866 218.636C354.28 218.636 350.817 218.161 347.478 217.212C344.173 216.298 341.062 214.997 338.144 213.31C335.261 211.587 332.624 209.53 330.233 207.14C327.843 204.749 325.786 202.112 324.064 199.229C322.376 196.312 321.058 193.2 320.108 189.896C319.194 186.556 318.737 183.093 318.737 179.507C318.737 175.921 319.194 172.458 320.108 169.118C321.058 165.778 322.376 162.667 324.064 159.784C325.786 156.866 327.843 154.212 330.233 151.821C332.624 149.431 335.261 147.392 338.144 145.704C341.062 143.981 344.173 142.663 347.478 141.749C350.817 140.8 354.28 140.325 357.866 140.325C362.542 140.325 367.06 141.134 371.419 142.751C375.778 144.333 379.716 146.653 383.232 149.712L375.216 162.896C373.001 160.505 370.382 158.677 367.358 157.411C364.335 156.11 361.171 155.46 357.866 155.46C354.526 155.46 351.398 156.093 348.48 157.358C345.562 158.624 343.013 160.347 340.833 162.526C338.653 164.671 336.931 167.22 335.665 170.173C334.399 173.091 333.767 176.202 333.767 179.507C333.767 182.812 334.399 185.923 335.665 188.841C336.931 191.724 338.653 194.255 340.833 196.435C343.013 198.614 345.562 200.337 348.48 201.603C351.398 202.868 354.526 203.501 357.866 203.501C361.171 203.501 364.335 202.868 367.358 201.603C370.382 200.302 373.001 198.456 375.216 196.065L383.232 209.249ZM450.465 217.001H436.779V162.115H416.155V148.382H471.041V162.115H450.465V217.001ZM489.997 167.716V192.38H502.329C504.019 192.38 505.609 192.065 507.099 191.435C508.588 190.776 509.892 189.888 511.009 188.771C512.126 187.653 513 186.35 513.63 184.86C514.289 183.342 514.618 181.738 514.618 180.048C514.618 178.358 514.289 176.768 513.63 175.278C513 173.76 512.126 172.442 511.009 171.325C509.892 170.208 508.588 169.334 507.099 168.704C505.609 168.045 504.019 167.716 502.329 167.716H489.997ZM489.997 217.001H477.665V155.384H502.329C504.592 155.384 506.769 155.685 508.86 156.286C510.952 156.859 512.899 157.69 514.704 158.778C516.537 159.838 518.199 161.127 519.689 162.646C521.207 164.135 522.496 165.797 523.556 167.63C524.644 169.463 525.475 171.425 526.048 173.517C526.649 175.608 526.95 177.785 526.95 180.048C526.95 182.168 526.678 184.23 526.134 186.235C525.618 188.241 524.859 190.146 523.857 191.95C522.883 193.755 521.679 195.416 520.247 196.935C518.815 198.453 517.211 199.771 515.435 200.888L522.267 217.001H509.161L503.79 204.583L489.997 204.669V217.001ZM566.566 195.178V184.247C566.566 182.749 566.274 181.34 565.69 180.02C565.132 178.674 564.357 177.506 563.367 176.516C562.377 175.525 561.209 174.751 559.863 174.192C558.543 173.608 557.134 173.316 555.636 173.316C554.138 173.316 552.716 173.608 551.37 174.192C550.05 174.751 548.895 175.525 547.904 176.516C546.914 177.506 546.127 178.674 545.543 180.02C544.984 181.34 544.705 182.749 544.705 184.247V195.178H566.566ZM577.497 217.001H566.566V206.07H544.705V217.001H533.813V184.247C533.813 181.226 534.384 178.395 535.526 175.754C536.669 173.088 538.218 170.765 540.173 168.784C542.153 166.804 544.464 165.242 547.105 164.1C549.771 162.957 552.614 162.386 555.636 162.386C558.657 162.386 561.488 162.957 564.129 164.1C566.795 165.242 569.118 166.804 571.099 168.784C573.079 170.765 574.641 173.088 575.783 175.754C576.926 178.395 577.497 181.226 577.497 184.247V217.001ZM624.349 212.12C622.135 214.024 619.656 215.485 616.911 216.503C614.166 217.521 611.322 218.03 608.378 218.03C606.12 218.03 603.94 217.731 601.837 217.134C599.756 216.558 597.797 215.739 595.96 214.677C594.145 213.592 592.485 212.297 590.98 210.792C589.474 209.287 588.179 207.627 587.095 205.812C586.032 203.974 585.202 202.015 584.605 199.935C584.029 197.832 583.741 195.651 583.741 193.394C583.741 191.136 584.029 188.955 584.605 186.853C585.202 184.75 586.032 182.791 587.095 180.976C588.179 179.138 589.474 177.467 590.98 175.962C592.485 174.457 594.145 173.173 595.96 172.11C597.797 171.026 599.756 170.196 601.837 169.62C603.94 169.022 606.12 168.724 608.378 168.724C611.322 168.724 614.166 169.233 616.911 170.251C619.656 171.247 622.135 172.708 624.349 174.634L619.302 182.935C617.907 181.429 616.258 180.278 614.355 179.481C612.451 178.662 610.459 178.253 608.378 178.253C606.275 178.253 604.305 178.651 602.468 179.448C600.631 180.245 599.026 181.33 597.653 182.702C596.281 184.052 595.196 185.657 594.399 187.517C593.603 189.354 593.204 191.313 593.204 193.394C593.204 195.474 593.603 197.433 594.399 199.271C595.196 201.086 596.281 202.679 597.653 204.052C599.026 205.424 600.631 206.509 602.468 207.306C604.305 208.103 606.275 208.501 608.378 208.501C610.459 208.501 612.451 208.103 614.355 207.306C616.258 206.487 617.907 205.325 619.302 203.819L624.349 212.12ZM637.372 217.001H629.244V176.39H637.372V196.695L652.495 176.39H661.728L648.898 193.523L661.728 217.001H652.495L643.574 200.575L637.372 208.873V217.001Z" fill="white"/>
</svg>
