<svg width="282" height="64" viewBox="0 0 282 64" fill="none" xmlns="http://www.w3.org/2000/svg">
<path d="M5.95664 30.4073V31.9989V33.5905C5.95664 34.0158 5.48099 34.3611 4.89509 34.3611C4.30919 34.3611 3.83354 34.0158 3.83354 33.5905V31.9989V30.4073C3.83354 29.9819 4.30919 29.6366 4.89509 29.6366C5.48099 29.6366 5.95664 29.9819 5.95664 30.4073ZM1.06155 29.6389C0.47565 29.6389 0 29.9842 0 30.4095V31.9989V33.5905C0 34.0158 0.47565 34.3611 1.06155 34.3611C1.64745 34.3611 2.1231 34.0158 2.1231 33.5905V31.9989V30.4073C2.1231 29.9819 1.64745 29.6389 1.06155 29.6389ZM8.72863 28.0953C8.14273 28.0953 7.66709 28.4406 7.66709 28.866V31.9989V35.1317C7.66709 35.5571 8.14273 35.9024 8.72863 35.9024C9.31453 35.9024 9.79018 35.5571 9.79018 35.1317V31.9989V28.866C9.79018 28.4406 9.31453 28.0953 8.72863 28.0953ZM12.5653 26.0098C11.9794 26.0098 11.5038 26.3551 11.5038 26.7804V31.9989V37.2196C11.5038 37.6449 11.9794 37.9902 12.5653 37.9902C13.1512 37.9902 13.6269 37.6449 13.6269 37.2196V31.9989V26.7781C13.6237 26.3528 13.1512 26.0098 12.5653 26.0098ZM16.3989 24.5989C15.813 24.5989 15.3373 24.9442 15.3373 25.3695V31.9989V38.6282C15.3373 39.0536 15.813 39.3989 16.3989 39.3989C16.9848 39.3989 17.4604 39.0536 17.4604 38.6282V31.9989V25.3695C17.4573 24.9442 16.9848 24.5989 16.3989 24.5989ZM20.2324 29.488C19.6465 29.488 19.1709 29.8333 19.1709 30.2586V31.9989V33.7414C19.1709 34.1667 19.6465 34.512 20.2324 34.512C20.8183 34.512 21.294 34.1667 21.294 33.7414V31.9989V30.2563C21.2908 29.831 20.8183 29.488 20.2324 29.488ZM24.066 26.8993C23.4801 26.8993 23.0044 27.2447 23.0044 27.67V31.9989V36.33C23.0044 36.7553 23.4801 37.1007 24.066 37.1007C24.6518 37.1007 25.1275 36.7553 25.1275 36.33V31.9989V27.6677C25.1275 27.2424 24.6518 26.8993 24.066 26.8993ZM27.8995 25.2346C27.3136 25.2346 26.8379 25.5799 26.8379 26.0052V31.9989V37.9948C26.8379 38.4201 27.3136 38.7654 27.8995 38.7654C28.4854 38.7654 28.961 38.4201 28.961 37.9948V31.9989V26.0029C28.961 25.5776 28.4854 25.2346 27.8995 25.2346ZM31.733 26.8993C31.1471 26.8993 30.6715 27.2447 30.6715 27.67V31.9989V36.33C30.6715 36.7553 31.1471 37.1007 31.733 37.1007C32.3189 37.1007 32.7946 36.7553 32.7946 36.33V31.9989V27.6677C32.7946 27.2424 32.3189 26.8993 31.733 26.8993ZM35.5666 29.6389C34.9807 29.6389 34.505 29.9842 34.505 30.4095V31.9989V33.5905C34.505 34.0158 34.9807 34.3611 35.5666 34.3611C36.1525 34.3611 36.6281 34.0158 36.6281 33.5905V31.9989V30.4073C36.6281 29.9819 36.1525 29.6389 35.5666 29.6389ZM39.4001 28.0908C38.8142 28.0908 38.3386 28.4361 38.3386 28.8614V31.9989V35.1386C38.3386 35.5639 38.8142 35.9092 39.4001 35.9092C39.986 35.9092 40.4617 35.5639 40.4617 35.1386V31.9989V28.8591C40.4617 28.4361 39.986 28.0908 39.4001 28.0908ZM43.2337 24.951C42.6478 24.951 42.1721 25.2963 42.1721 25.7217V31.9989V38.2761C42.1721 38.7014 42.6478 39.0467 43.2337 39.0467C43.8196 39.0467 44.2952 38.7014 44.2952 38.2761V31.9989V25.7217C44.2952 25.2963 43.8196 24.951 43.2337 24.951ZM47.0704 27.7455C46.4845 27.7455 46.0088 28.0908 46.0088 28.5161V31.9989V35.4816C46.0088 35.907 46.4845 36.2523 47.0704 36.2523C47.6562 36.2523 48.1319 35.907 48.1319 35.4816V31.9989V28.5161C48.1287 28.0908 47.6562 27.7455 47.0704 27.7455ZM50.9039 29.3874C50.318 29.3874 49.8424 29.7327 49.8424 30.158V31.9989V33.8397C49.8424 34.265 50.318 34.6104 50.9039 34.6104C51.4898 34.6104 51.9654 34.265 51.9654 33.8397V31.9989V30.158C51.9623 29.7327 51.4898 29.3874 50.9039 29.3874ZM54.7374 28.0908C54.1515 28.0908 53.6759 28.4361 53.6759 28.8614V31.9989V35.1386C53.6759 35.5639 54.1515 35.9092 54.7374 35.9092C55.3233 35.9092 55.799 35.5639 55.799 35.1386V31.9989V28.8591C55.7958 28.4361 55.3233 28.0908 54.7374 28.0908ZM58.571 29.6389C57.9851 29.6389 57.5094 29.9842 57.5094 30.4095V31.9989V33.5905C57.5094 34.0158 57.9851 34.3611 58.571 34.3611C59.1569 34.3611 59.6325 34.0158 59.6325 33.5905V31.9989V30.4073C59.6325 29.9819 59.1569 29.6389 58.571 29.6389ZM62.4045 28.0473C61.8186 28.0473 61.343 28.3926 61.343 28.818V31.9989V35.1798C61.343 35.6051 61.8186 35.9504 62.4045 35.9504C62.9904 35.9504 63.4661 35.6051 63.4661 35.1798V31.9989V28.818C63.4661 28.3926 62.9904 28.0473 62.4045 28.0473ZM66.2381 23.9517C65.6522 23.9517 65.1765 24.297 65.1765 24.7223V31.9989V39.2754C65.1765 39.7007 65.6522 40.046 66.2381 40.046C66.824 40.046 67.2996 39.7007 67.2996 39.2754V31.9989V24.7223C67.2996 24.297 66.824 23.9517 66.2381 23.9517ZM70.0716 24.951C69.4857 24.951 69.01 25.2963 69.01 25.7217V31.9989V38.2761C69.01 38.7014 69.4857 39.0467 70.0716 39.0467C70.6575 39.0467 71.1332 38.7014 71.1332 38.2761V31.9989V25.7217C71.1332 25.2963 70.6575 24.951 70.0716 24.951ZM73.9051 24.2627C73.3192 24.2627 72.8436 24.608 72.8436 25.0333V31.9989V38.9667C72.8436 39.392 73.3192 39.7373 73.9051 39.7373C74.491 39.7373 74.9667 39.392 74.9667 38.9667V31.9989V25.031C74.9667 24.6057 74.491 24.2627 73.9051 24.2627ZM77.7418 20.9103C77.1559 20.9103 76.6803 21.2556 76.6803 21.6809V31.9989V42.3191C76.6803 42.7444 77.1559 43.0897 77.7418 43.0897C78.3277 43.0897 78.8034 42.7444 78.8034 42.3191V31.9989V21.6786C78.8002 21.2556 78.3277 20.9103 77.7418 20.9103ZM81.5754 19.2386C80.9895 19.2386 80.5138 19.584 80.5138 20.0093V31.9989V43.9884C80.5138 44.4138 80.9895 44.7591 81.5754 44.7591C82.1613 44.7591 82.6369 44.4138 82.6369 43.9884V31.9989V20.0093C82.6338 19.584 82.1613 19.2386 81.5754 19.2386ZM85.4089 16.0143C84.823 16.0143 84.3474 16.3596 84.3474 16.7849V31.9989V47.2128C84.3474 47.6381 84.823 47.9834 85.4089 47.9834C85.9948 47.9834 86.4705 47.6381 86.4705 47.2128V31.9989V16.7849C86.4673 16.3596 85.9948 16.0143 85.4089 16.0143ZM89.2425 8.93672C88.6566 8.93672 88.1809 9.28202 88.1809 9.70737V31.9989V54.2926C88.1809 54.718 88.6566 55.0633 89.2425 55.0633C89.8284 55.0633 90.304 54.718 90.304 54.2926V31.9989V9.70508C90.304 9.27974 89.8284 8.93672 89.2425 8.93672ZM93.076 13.9082C92.4901 13.9082 92.0145 14.2535 92.0145 14.6788V31.9989V49.3212C92.0145 49.7465 92.4901 50.0918 93.076 50.0918C93.6619 50.0918 94.1376 49.7465 94.1376 49.3212V31.9989V14.6765C94.1376 14.2535 93.6619 13.9082 93.076 13.9082ZM96.9095 15.6141C96.3236 15.6141 95.848 15.9594 95.848 16.3848V31.9989V47.613C95.848 48.0383 96.3236 48.3836 96.9095 48.3836C97.4954 48.3836 97.9711 48.0383 97.9711 47.613V31.9989V16.3848C97.9711 15.9594 97.4954 15.6141 96.9095 15.6141ZM100.743 19.3324C100.157 19.3324 99.6815 19.6777 99.6815 20.103V31.9989V43.8947C99.6815 44.32 100.157 44.6653 100.743 44.6653C101.329 44.6653 101.805 44.32 101.805 43.8947V31.9989V20.103C101.805 19.6777 101.329 19.3324 100.743 19.3324ZM104.577 13.1398C103.991 13.1398 103.515 13.4851 103.515 13.9105V31.9989V50.0895C103.515 50.5149 103.991 50.8602 104.577 50.8602C105.163 50.8602 105.638 50.5149 105.638 50.0895V31.9989V13.9082C105.638 13.4828 105.163 13.1398 104.577 13.1398ZM108.413 22.5682C107.827 22.5682 107.352 22.9135 107.352 23.3388V31.9989V40.6589C107.352 41.0842 107.827 41.4295 108.413 41.4295C108.999 41.4295 109.475 41.0842 109.475 40.6589V31.9989V23.3388C109.472 22.9135 108.999 22.5682 108.413 22.5682ZM112.247 16.9153C111.661 16.9153 111.185 17.2606 111.185 17.6859V31.9989V46.3141C111.185 46.7394 111.661 47.0847 112.247 47.0847C112.833 47.0847 113.308 46.7394 113.308 46.3141V31.9989V17.6836C113.305 17.2583 112.833 16.9153 112.247 16.9153ZM116.08 19.7509C115.495 19.7509 115.019 20.0962 115.019 20.5215V31.9989V43.4762C115.019 43.9015 115.495 44.2468 116.08 44.2468C116.666 44.2468 117.142 43.9015 117.142 43.4762V31.9989V20.5215C117.139 20.0962 116.666 19.7509 116.08 19.7509ZM119.914 21.0315C119.328 21.0315 118.852 21.3768 118.852 21.8021V31.9989V42.1979C118.852 42.6232 119.328 42.9685 119.914 42.9685C120.5 42.9685 120.975 42.6232 120.975 42.1979V31.9989V21.7998C120.975 21.3745 120.5 21.0315 119.914 21.0315ZM123.747 23.9517C123.162 23.9517 122.686 24.297 122.686 24.7223V31.9989V39.2754C122.686 39.7007 123.162 40.046 123.747 40.046C124.333 40.046 124.809 39.7007 124.809 39.2754V31.9989V24.7223C124.809 24.297 124.333 23.9517 123.747 23.9517ZM127.581 21.466C126.995 21.466 126.519 21.8113 126.519 22.2366V31.9989V41.7611C126.519 42.1864 126.995 42.5317 127.581 42.5317C128.167 42.5317 128.643 42.1864 128.643 41.7611V31.9989V22.2366C128.643 21.8113 128.167 21.466 127.581 21.466ZM131.415 19.3324C130.829 19.3324 130.353 19.6777 130.353 20.103V31.9989V43.8947C130.353 44.32 130.829 44.6653 131.415 44.6653C132 44.6653 132.476 44.32 132.476 43.8947V31.9989V20.103C132.476 19.6777 132 19.3324 131.415 19.3324ZM135.248 16.6752C134.662 16.6752 134.187 17.0205 134.187 17.4458V31.9989V46.5519C134.187 46.9772 134.662 47.3225 135.248 47.3225C135.834 47.3225 136.31 46.9772 136.31 46.5519V31.9989V17.4458C136.31 17.0205 135.834 16.6752 135.248 16.6752ZM139.082 10.8325C138.496 10.8325 138.02 11.1778 138.02 11.6031V31.9989V52.3946C138.02 52.82 138.496 53.1653 139.082 53.1653C139.668 53.1653 140.143 52.82 140.143 52.3946V31.9989V11.6031C140.143 11.1778 139.668 10.8325 139.082 10.8325ZM142.918 13.9082C142.332 13.9082 141.857 14.2535 141.857 14.6788V31.9989V49.3212C141.857 49.7465 142.332 50.0918 142.918 50.0918C143.504 50.0918 143.98 49.7465 143.98 49.3212V31.9989V14.6765C143.977 14.2535 143.501 13.9082 142.918 13.9082ZM146.752 16.6752C146.166 16.6752 145.69 17.0205 145.69 17.4458V31.9989V46.5519C145.69 46.9772 146.166 47.3225 146.752 47.3225C147.338 47.3225 147.813 46.9772 147.813 46.5519V31.9989V17.4458C147.81 17.0205 147.338 16.6752 146.752 16.6752ZM150.585 18.9322C150 18.9322 149.524 19.2775 149.524 19.7029V31.9989V44.2948C149.524 44.7202 150 45.0655 150.585 45.0655C151.171 45.0655 151.647 44.7202 151.647 44.2948V31.9989V19.7029C151.644 19.2775 151.171 18.9322 150.585 18.9322ZM154.419 16.9153C153.833 16.9153 153.357 17.2606 153.357 17.6859V31.9989V46.3141C153.357 46.7394 153.833 47.0847 154.419 47.0847C155.005 47.0847 155.481 46.7394 155.481 46.3141V31.9989V17.6836C155.481 17.2583 155.005 16.9153 154.419 16.9153ZM158.253 11.8912C157.667 11.8912 157.191 12.2365 157.191 12.6619V31.9989V51.3381C157.191 51.7635 157.667 52.1088 158.253 52.1088C158.838 52.1088 159.314 51.7635 159.314 51.3381V31.9989V12.6596C159.314 12.2343 158.838 11.8912 158.253 11.8912ZM162.086 6.11941C161.5 6.11941 161.025 6.46472 161.025 6.89006V31.9989V57.1099C161.025 57.5353 161.5 57.8806 162.086 57.8806C162.672 57.8806 163.148 57.5353 163.148 57.1099V31.9989V6.88777C163.148 6.46472 162.672 6.11941 162.086 6.11941ZM165.92 2.65266C165.334 2.65266 164.858 2.99796 164.858 3.4233V31.9989V60.5744C164.858 60.9997 165.334 61.345 165.92 61.345C166.505 61.345 166.981 60.9997 166.981 60.5744V31.9989V3.4233C166.981 2.99796 166.505 2.65266 165.92 2.65266ZM169.753 0C169.167 0 168.692 0.345304 168.692 0.770644V31.9989V63.2294C168.692 63.6547 169.167 64 169.753 64C170.339 64 170.815 63.6547 170.815 63.2294V31.9989V0.768357C170.815 0.345303 170.339 0 169.753 0ZM173.59 7.43659C173.004 7.43659 172.528 7.7819 172.528 8.20724V31.9989V55.7928C172.528 56.2181 173.004 56.5634 173.59 56.5634C174.176 56.5634 174.651 56.2181 174.651 55.7928V31.9989V8.20495C174.648 7.77961 174.173 7.43659 173.59 7.43659ZM177.423 12.5658C176.837 12.5658 176.362 12.9111 176.362 13.3365V31.9989V50.6612C176.362 51.0866 176.837 51.4319 177.423 51.4319C178.009 51.4319 178.485 51.0866 178.485 50.6612V31.9989V13.3365C178.482 12.9111 178.009 12.5658 177.423 12.5658ZM181.257 16.1126C180.671 16.1126 180.195 16.4579 180.195 16.8833V31.9989V47.1144C180.195 47.5398 180.671 47.8851 181.257 47.8851C181.843 47.8851 182.318 47.5398 182.318 47.1144V31.9989V16.8833C182.315 16.4579 181.843 16.1126 181.257 16.1126ZM185.09 19.2386C184.505 19.2386 184.029 19.584 184.029 20.0093V31.9989V43.9884C184.029 44.4138 184.505 44.7591 185.09 44.7591C185.676 44.7591 186.152 44.4138 186.152 43.9884V31.9989V20.0093C186.152 19.584 185.676 19.2386 185.09 19.2386ZM188.924 22.2069C188.338 22.2069 187.862 22.5522 187.862 22.9775V31.9989V41.0202C187.862 41.4455 188.338 41.7908 188.924 41.7908C189.51 41.7908 189.986 41.4455 189.986 41.0202V31.9989V22.9775C189.986 22.5522 189.51 22.2069 188.924 22.2069ZM192.758 18.9322C192.172 18.9322 191.696 19.2775 191.696 19.7029V31.9989V44.2948C191.696 44.7202 192.172 45.0655 192.758 45.0655C193.343 45.0655 193.819 44.7202 193.819 44.2948V31.9989V19.7029C193.819 19.2775 193.343 18.9322 192.758 18.9322ZM196.591 26.3482C196.005 26.3482 195.53 26.6935 195.53 27.1189V31.9989V36.8811C195.53 37.3065 196.005 37.6518 196.591 37.6518C197.177 37.6518 197.653 37.3065 197.653 36.8811V31.9989V27.1166C197.653 26.6912 197.177 26.3482 196.591 26.3482ZM200.425 23.3823C199.839 23.3823 199.363 23.7276 199.363 24.1529V31.9989V39.8448C199.363 40.2701 199.839 40.6154 200.425 40.6154C201.011 40.6154 201.486 40.2701 201.486 39.8448V31.9989V24.1529C201.486 23.7276 201.011 23.3823 200.425 23.3823ZM204.261 26.0692C203.675 26.0692 203.2 26.4146 203.2 26.8399V31.9989V37.1578C203.2 37.5832 203.675 37.9285 204.261 37.9285C204.847 37.9285 205.323 37.5832 205.323 37.1578V31.9989V26.8399C205.32 26.4146 204.844 26.0692 204.261 26.0692ZM208.095 27.6494C207.509 27.6494 207.033 27.9947 207.033 28.4201V31.9989V35.5777C207.033 36.003 207.509 36.3483 208.095 36.3483C208.681 36.3483 209.156 36.003 209.156 35.5777V31.9989V28.4201C209.153 27.9947 208.681 27.6494 208.095 27.6494ZM211.928 24.8664C211.342 24.8664 210.867 25.2117 210.867 25.637V31.9989V38.3629C210.867 38.7883 211.342 39.1336 211.928 39.1336C212.514 39.1336 212.99 38.7883 212.99 38.3629V31.9989V25.6348C212.987 25.2094 212.514 24.8664 211.928 24.8664ZM215.762 26.9062C215.176 26.9062 214.7 27.2515 214.7 27.6769V31.9989V36.3232C214.7 36.7485 215.176 37.0938 215.762 37.0938C216.348 37.0938 216.824 36.7485 216.824 36.3232V31.9989V27.6746C216.824 27.2492 216.348 26.9062 215.762 26.9062ZM219.595 27.6494C219.01 27.6494 218.534 27.9947 218.534 28.4201V31.9989V35.5777C218.534 36.003 219.01 36.3483 219.595 36.3483C220.181 36.3483 220.657 36.003 220.657 35.5777V31.9989V28.4201C220.657 27.9947 220.181 27.6494 219.595 27.6494ZM223.429 29.44C222.843 29.44 222.367 29.7853 222.367 30.2106V31.9989V33.7894C222.367 34.2147 222.843 34.56 223.429 34.56C224.015 34.56 224.491 34.2147 224.491 33.7894V31.9989V30.2083C224.491 29.783 224.015 29.44 223.429 29.44ZM227.263 28.4406C226.677 28.4406 226.201 28.7859 226.201 29.2113V31.9989V34.7864C226.201 35.2118 226.677 35.5571 227.263 35.5571C227.848 35.5571 228.324 35.2118 228.324 34.7864V31.9989V29.2113C228.324 28.7859 227.848 28.4406 227.263 28.4406ZM231.096 25.6531C230.51 25.6531 230.035 25.9984 230.035 26.4237V31.9989V37.5763C230.035 38.0016 230.51 38.3469 231.096 38.3469C231.682 38.3469 232.158 38.0016 232.158 37.5763V31.9989V26.4214C232.158 25.9984 231.682 25.6531 231.096 25.6531ZM234.93 24.0706C234.344 24.0706 233.868 24.4159 233.868 24.8412V31.9989V39.1565C233.868 39.5818 234.344 39.9271 234.93 39.9271C235.516 39.9271 235.991 39.5818 235.991 39.1565V31.9989V24.8412C235.991 24.4159 235.516 24.0706 234.93 24.0706ZM238.763 21.466C238.177 21.466 237.702 21.8113 237.702 22.2366V31.9989V41.7611C237.702 42.1864 238.177 42.5317 238.763 42.5317C239.349 42.5317 239.825 42.1864 239.825 41.7611V31.9989V22.2366C239.825 21.8113 239.349 21.466 238.763 21.466ZM242.6 17.2011C242.014 17.2011 241.538 17.5464 241.538 17.9718V31.9989V46.0259C241.538 46.4513 242.014 46.7966 242.6 46.7966C243.186 46.7966 243.661 46.4513 243.661 46.0259V31.9989V17.9718C243.658 17.5464 243.186 17.2011 242.6 17.2011ZM246.433 13.9082C245.848 13.9082 245.372 14.2535 245.372 14.6788V31.9989V49.3212C245.372 49.7465 245.848 50.0918 246.433 50.0918C247.019 50.0918 247.495 49.7465 247.495 49.3212V31.9989V14.6765C247.492 14.2535 247.019 13.9082 246.433 13.9082ZM250.267 17.4481C249.681 17.4481 249.205 17.7934 249.205 18.2187V31.9989V45.779C249.205 46.2043 249.681 46.5496 250.267 46.5496C250.853 46.5496 251.329 46.2043 251.329 45.779V31.9989V18.2187C251.329 17.7934 250.853 17.4481 250.267 17.4481ZM254.101 20.9103C253.515 20.9103 253.039 21.2556 253.039 21.6809V31.9989V42.3191C253.039 42.7444 253.515 43.0897 254.101 43.0897C254.686 43.0897 255.162 42.7444 255.162 42.3191V31.9989V21.6786C255.162 21.2556 254.686 20.9103 254.101 20.9103ZM257.934 23.6704C257.348 23.6704 256.872 24.0157 256.872 24.4411V31.9989V39.5566C256.872 39.982 257.348 40.3273 257.934 40.3273C258.52 40.3273 258.996 39.982 258.996 39.5566V31.9989V24.4411C258.996 24.0157 258.52 23.6704 257.934 23.6704ZM261.768 16.9153C261.182 16.9153 260.706 17.2606 260.706 17.6859V31.9989V46.3141C260.706 46.7394 261.182 47.0847 261.768 47.0847C262.354 47.0847 262.829 46.7394 262.829 46.3141V31.9989V17.6836C262.829 17.2583 262.354 16.9153 261.768 16.9153ZM265.601 20.0756C265.015 20.0756 264.54 20.4209 264.54 20.8462V31.9989V43.1515C264.54 43.5768 265.015 43.9221 265.601 43.9221C266.187 43.9221 266.663 43.5768 266.663 43.1515V31.9989V20.8462C266.663 20.4209 266.187 20.0756 265.601 20.0756ZM269.435 28.7516C268.849 28.7516 268.373 29.0969 268.373 29.5223V31.9989V34.4777C268.373 34.9031 268.849 35.2484 269.435 35.2484C270.021 35.2484 270.496 34.9031 270.496 34.4777V31.9989V29.52C270.496 29.0947 270.021 28.7516 269.435 28.7516ZM273.271 26.2728C272.685 26.2728 272.21 26.6181 272.21 27.0434V31.9989V36.9543C272.21 37.3796 272.685 37.7249 273.271 37.7249C273.857 37.7249 274.333 37.3796 274.333 36.9543V31.9989V27.0434C274.33 26.6181 273.857 26.2728 273.271 26.2728ZM277.105 28.093C276.519 28.093 276.043 28.4383 276.043 28.8637V31.9989V35.134C276.043 35.5594 276.519 35.9047 277.105 35.9047C277.691 35.9047 278.166 35.5594 278.166 35.134V31.9989V28.8637C278.163 28.4383 277.691 28.093 277.105 28.093ZM280.938 29.6389C280.353 29.6389 279.877 29.9842 279.877 30.4095V31.9989V33.5905C279.877 34.0158 280.353 34.3611 280.938 34.3611C281.524 34.3611 282 34.0158 282 33.5905V31.9989V30.4073C281.997 29.9819 281.524 29.6389 280.938 29.6389Z" fill="#EB5939"/>
</svg>
