<svg width="92" height="22" viewBox="0 0 92 22" fill="none" xmlns="http://www.w3.org/2000/svg">
<path d="M12.7456 13.166V9.24219C12.7456 8.70443 12.6408 8.19857 12.4312 7.72461C12.2307 7.24154 11.9527 6.82227 11.5972 6.4668C11.2417 6.11133 10.8224 5.83333 10.3394 5.63281C9.86542 5.42318 9.35956 5.31836 8.8218 5.31836C8.28404 5.31836 7.77362 5.42318 7.29055 5.63281C6.81659 5.83333 6.40187 6.11133 6.04641 6.4668C5.69094 6.82227 5.40838 7.24154 5.19875 7.72461C4.99823 8.19857 4.89797 8.70443 4.89797 9.24219V13.166H12.7456ZM16.6695 21H12.7456V17.0762H4.89797V21H0.987812V9.24219C0.987812 8.15755 1.19289 7.14128 1.60305 6.19336C2.0132 5.23633 2.56919 4.40234 3.27102 3.69141C3.98195 2.98047 4.81138 2.41992 5.7593 2.00977C6.71633 1.59961 7.73716 1.39453 8.8218 1.39453C9.90643 1.39453 10.9227 1.59961 11.8706 2.00977C12.8277 2.41992 13.6616 2.98047 14.3726 3.69141C15.0835 4.40234 15.6441 5.23633 16.0542 6.19336C16.4644 7.14128 16.6695 8.15755 16.6695 9.24219V21ZM28.5563 21H20.0251V17.2812H28.5563C28.8115 17.2812 29.0303 17.1901 29.2126 17.0078C29.3949 16.8255 29.486 16.6068 29.486 16.3516C29.486 16.0872 29.3949 15.9141 29.2126 15.832C29.0303 15.75 28.8115 15.709 28.5563 15.709H24.6735C24.0264 15.709 23.4203 15.5859 22.8552 15.3398C22.2901 15.0938 21.7979 14.7611 21.3786 14.3418C20.9593 13.9134 20.6266 13.4167 20.3805 12.8516C20.1436 12.2865 20.0251 11.6803 20.0251 11.0332C20.0251 10.3861 20.1436 9.77995 20.3805 9.21484C20.6266 8.64974 20.9593 8.15755 21.3786 7.73828C21.7979 7.31901 22.2901 6.99089 22.8552 6.75391C23.4203 6.50781 24.0264 6.38477 24.6735 6.38477H32.2341V10.1035H24.6735C24.4183 10.1035 24.1996 10.1947 24.0173 10.377C23.835 10.5592 23.7438 10.778 23.7438 11.0332C23.7438 11.2975 23.835 11.5254 24.0173 11.7168C24.1996 11.8991 24.4183 11.9902 24.6735 11.9902H28.5563C29.1943 11.9902 29.7959 12.0996 30.361 12.3184C30.9261 12.528 31.4183 12.8242 31.8376 13.207C32.2568 13.5898 32.5895 14.0501 32.8356 14.5879C33.0817 15.1257 33.2048 15.7135 33.2048 16.3516C33.2048 16.9987 33.0817 17.6048 32.8356 18.1699C32.5895 18.7259 32.2568 19.2181 31.8376 19.6465C31.4183 20.0658 30.9261 20.3984 30.361 20.6445C29.7959 20.8815 29.1943 21 28.5563 21ZM43.3827 21C42.4803 21 41.6327 20.8314 40.8397 20.4941C40.0467 20.1478 39.3495 19.6784 38.7479 19.0859C38.1554 18.4844 37.686 17.7871 37.3397 16.9941C37.0024 16.2012 36.8338 15.3535 36.8338 14.4512V10.1035H35.0155V6.38477H36.8338V0.533203H40.5526V6.38477H46.2127V10.1035H40.5526V14.4512C40.5526 14.8431 40.6255 15.2122 40.7713 15.5586C40.9172 15.8958 41.1177 16.1921 41.3729 16.4473C41.6281 16.7025 41.9289 16.9076 42.2752 17.0625C42.6216 17.2083 42.9907 17.2812 43.3827 17.2812H46.2127V21H43.3827ZM52.8906 21H49.1582V6.35742H50.0605L51.291 8.09375C51.8926 7.54688 52.5762 7.1276 53.3418 6.83594C54.1074 6.53516 54.9004 6.38477 55.7207 6.38477H59.0156V10.1035H55.7207C55.3288 10.1035 54.9596 10.1764 54.6133 10.3223C54.2669 10.4681 53.9661 10.6686 53.7109 10.9238C53.4557 11.179 53.2552 11.4798 53.1094 11.8262C52.9635 12.1725 52.8906 12.5417 52.8906 12.9336V21ZM75.4963 21H74.5939L73.1447 18.9902C72.7892 19.3092 72.411 19.61 72.0099 19.8926C71.618 20.166 71.2033 20.4076 70.7658 20.6172C70.3283 20.8177 69.8771 20.9772 69.4123 21.0957C68.9565 21.2142 68.4917 21.2734 68.0177 21.2734C66.9878 21.2734 66.0171 21.1003 65.1056 20.7539C64.2033 20.4076 63.4103 19.9062 62.7267 19.25C62.0522 18.5846 61.519 17.7734 61.1271 16.8164C60.7352 15.8594 60.5392 14.7702 60.5392 13.5488C60.5392 12.4095 60.7352 11.3659 61.1271 10.418C61.519 9.46094 62.0522 8.64062 62.7267 7.95703C63.4103 7.27344 64.2033 6.74479 65.1056 6.37109C66.0171 5.98828 66.9878 5.79688 68.0177 5.79688C68.4917 5.79688 68.9611 5.85612 69.4259 5.97461C69.8908 6.0931 70.342 6.25716 70.7795 6.4668C71.217 6.67643 71.6317 6.92253 72.0236 7.20508C72.4246 7.48763 72.7983 7.79297 73.1447 8.12109L74.5939 6.38477H75.4963V21ZM71.7365 13.5488C71.7365 13.0384 71.6362 12.5462 71.4357 12.0723C71.2443 11.5892 70.98 11.1654 70.6427 10.8008C70.3055 10.4271 69.909 10.1309 69.4533 9.91211C69.0067 9.68424 68.5282 9.57031 68.0177 9.57031C67.5073 9.57031 67.0242 9.6569 66.5685 9.83008C66.1219 10.0033 65.73 10.2585 65.3927 10.5957C65.0646 10.9329 64.8048 11.3522 64.6134 11.8535C64.422 12.3457 64.3263 12.9108 64.3263 13.5488C64.3263 14.1868 64.422 14.7565 64.6134 15.2578C64.8048 15.75 65.0646 16.1647 65.3927 16.502C65.73 16.8392 66.1219 17.0944 66.5685 17.2676C67.0242 17.4408 67.5073 17.5273 68.0177 17.5273C68.5282 17.5273 69.0067 17.418 69.4533 17.1992C69.909 16.9714 70.3055 16.6751 70.6427 16.3105C70.98 15.9368 71.2443 15.513 71.4357 15.0391C71.6362 14.556 71.7365 14.0592 71.7365 13.5488ZM82.9534 21H79.1937V0.533203H82.9534V21ZM91.2446 19.6055C91.2446 19.9336 91.1854 20.2435 91.0669 20.5352C90.9484 20.8177 90.7843 21.0638 90.5747 21.2734C90.3651 21.4831 90.119 21.6471 89.8364 21.7656C89.5539 21.8932 89.2485 21.957 88.9204 21.957C88.6014 21.957 88.296 21.8932 88.0044 21.7656C87.7218 21.6471 87.4712 21.4831 87.2524 21.2734C87.0428 21.0638 86.8742 20.8177 86.7466 20.5352C86.6281 20.2435 86.5688 19.9336 86.5688 19.6055C86.5688 19.2865 86.6281 18.9857 86.7466 18.7031C86.8742 18.4206 87.0428 18.1745 87.2524 17.9648C87.4712 17.7552 87.7218 17.5911 88.0044 17.4727C88.296 17.3451 88.6014 17.2812 88.9204 17.2812C89.2485 17.2812 89.5539 17.3451 89.8364 17.4727C90.119 17.5911 90.3651 17.7552 90.5747 17.9648C90.7843 18.1745 90.9484 18.4206 91.0669 18.7031C91.1854 18.9857 91.2446 19.2865 91.2446 19.6055Z" fill="white"/>
</svg>
